<svg width="50" height="52" viewBox="0 0 50 52" fill="none" xmlns="http://www.w3.org/2000/svg">
<path opacity="0.4" d="M24.5151 30.63L17.8363 37.51C17.101 36.8368 16.3862 36.1425 15.6917 35.4271C13.588 33.239 11.6885 30.9456 9.9933 28.5471C8.31849 26.1486 6.97047 23.75 5.9901 21.3725C5.00972 18.974 4.51953 16.6806 4.51953 14.4925C4.51953 13.0618 4.76463 11.6942 5.25481 10.4318C5.745 9.14839 6.52113 7.97016 7.60363 6.91817C8.9108 5.59266 10.3405 4.94043 11.8519 4.94043C12.4238 4.94043 12.9957 5.06667 13.5063 5.31915C14.0374 5.57162 14.5071 5.95034 14.8748 6.49738L19.6132 13.3774C19.9809 13.9034 20.2464 14.3873 20.4302 14.8502C20.614 15.292 20.7162 15.7339 20.7162 16.1336C20.7162 16.6386 20.5732 17.1435 20.2872 17.6274C20.0217 18.1113 19.6337 18.6163 19.1435 19.1213L17.5912 20.7834C17.3665 21.0148 17.2644 21.2884 17.2644 21.625C17.2644 21.7933 17.2848 21.9406 17.3257 22.1089C17.387 22.2772 17.4482 22.4035 17.4891 22.5297C17.8567 23.224 18.4899 24.1287 19.3886 25.2228C20.3077 26.3169 21.288 27.432 22.3501 28.5471C23.0854 29.2835 23.8003 29.9988 24.5151 30.63Z" fill="#FF6700"/>
<path d="M45.3071 39.2985C45.3071 39.8877 45.205 40.4978 45.0007 41.0869C44.9395 41.2552 44.8782 41.4236 44.7965 41.5919C44.4493 42.3493 43.9999 43.0647 43.4076 43.7379C42.4068 44.8741 41.3039 45.6946 40.058 46.2206C40.0376 46.2206 40.0172 46.2417 39.9967 46.2417C38.7917 46.7466 37.4845 47.0201 36.0752 47.0201C33.9919 47.0201 31.7657 46.5152 29.4168 45.4842C27.068 44.4533 24.7192 43.0647 22.3908 41.3184C21.5943 40.7082 20.7977 40.098 20.042 39.4458L26.7208 32.5658C27.2927 33.0076 27.8033 33.3443 28.2322 33.5757C28.3343 33.6178 28.4569 33.6809 28.5999 33.744C28.7633 33.8071 28.9267 33.8282 29.1105 33.8282C29.4577 33.8282 29.7232 33.702 29.9479 33.4705L31.5001 31.8925C32.0108 31.3665 32.5009 30.9668 32.9707 30.7143C33.4405 30.4197 33.9102 30.2725 34.4208 30.2725C34.8089 30.2725 35.2174 30.3566 35.6667 30.546C36.1161 30.7353 36.5858 31.0089 37.0965 31.3665L43.857 36.3109C44.388 36.6896 44.7556 37.1314 44.9803 37.6574C45.1846 38.1834 45.3071 38.7094 45.3071 39.2985Z" fill="#FF6700"/>
</svg>
