<svg xmlns="http://www.w3.org/2000/svg" fill="none" viewBox="3.67 1.92 17.24 19.91">
<path d="M20.668 8.42647C19.6483 3.93987 15.7347 1.91992 12.2969 1.91992C12.2969 1.91992 12.2969 1.91992 12.2872 1.91992C8.85913 1.91992 4.93578 3.93015 3.9161 8.41676C2.77988 13.4278 5.84864 17.6716 8.62606 20.3422C9.65546 21.3327 10.9762 21.828 12.2969 21.828C13.6177 21.828 14.9384 21.3327 15.9581 20.3422C18.7355 17.6716 21.8043 13.4375 20.668 8.42647ZM12.2969 13.2918C10.6072 13.2918 9.23787 11.9225 9.23787 10.2328C9.23787 8.54301 10.6072 7.17372 12.2969 7.17372C13.9867 7.17372 15.356 8.54301 15.356 10.2328C15.356 11.9225 13.9867 13.2918 12.2969 13.2918Z" fill="#0D3862"/>
</svg>