<svg xmlns="http://www.w3.org/2000/svg" fill="none" viewBox="3.5 2.55 17.4 19.900000000000002" style="max-height: 500px" width="17.4" height="19.900000000000002">
<g clip-path="url(#clip0_427_1652)">
<path fill="#FD6905" d="M20.6011 9.05635C19.5815 4.56975 15.6678 2.5498 12.23 2.5498C12.23 2.5498 12.23 2.5498 12.2203 2.5498C8.79224 2.5498 4.86889 4.56004 3.84921 9.04664C2.71299 14.0577 5.78175 18.3015 8.55917 20.9721C9.58856 21.9626 10.9093 22.4579 12.23 22.4579C13.5508 22.4579 14.8715 21.9626 15.8912 20.9721C18.6686 18.3015 21.7374 14.0674 20.6011 9.05635ZM12.23 13.9217C10.5403 13.9217 9.17098 12.5524 9.17098 10.8626C9.17098 9.17289 10.5403 7.8036 12.23 7.8036C13.9198 7.8036 15.2891 9.17289 15.2891 10.8626C15.2891 12.5524 13.9198 13.9217 12.23 13.9217Z"/>
</g>
<defs>
<clipPath id="clip0_427_1652">
<rect transform="translate(0.57666 0.850342)" fill="white" height="23.307" width="23.307"/>
</clipPath>
</defs>
</svg>