<svg width="20" height="21" viewBox="0 0 20 21" fill="none" xmlns="http://www.w3.org/2000/svg">
<path opacity="0.4" d="M13.4915 2.12256H6.50817C3.47484 2.12256 1.6665 3.93089 1.6665 6.96423V13.9392C1.6665 16.9809 3.47484 18.7892 6.50817 18.7892H13.4832C16.5165 18.7892 18.3248 16.9809 18.3248 13.9476V6.96423C18.3332 3.93089 16.5248 2.12256 13.4915 2.12256Z" fill="#013D97"/>
<path d="M13.9775 13.5495L10.8839 10.4559L13.9775 7.36234C14.2191 7.12074 14.2191 6.72005 13.9775 6.47845C13.7359 6.23686 13.3352 6.23686 13.0936 6.47845L10 9.57204L6.90641 6.47845C6.66481 6.23686 6.26412 6.23686 6.02252 6.47845C5.78093 6.72005 5.78093 7.12074 6.02252 7.36234L9.11612 10.4559L6.02252 13.5495C5.78093 13.7911 5.78093 14.1918 6.02252 14.4334C6.26412 14.675 6.66481 14.675 6.90641 14.4334L10 11.3398L13.0936 14.4334C13.3352 14.675 13.7359 14.675 13.9775 14.4334C14.2191 14.1918 14.2191 13.7911 13.9775 13.5495Z" fill="#013D97"/>
</svg>
