<svg width="62" height="64" viewBox="0 0 62 64" fill="none" xmlns="http://www.w3.org/2000/svg">
<path opacity="0.4" d="M43.5611 53.9147H18.0305C10.3713 53.9147 5.26514 49.9697 5.26514 40.7648V22.355C5.26514 13.15 10.3713 9.20508 18.0305 9.20508H43.5611C51.2203 9.20508 56.3264 13.15 56.3264 22.355V40.7648C56.3264 49.9697 51.2203 53.9147 43.5611 53.9147Z" fill="#FF6700"/>
<path d="M30.7959 33.8479C28.6513 33.8479 26.4812 33.1642 24.8218 31.7703L16.8307 25.1953C16.0137 24.5115 15.8605 23.2754 16.5243 22.4338C17.1881 21.5923 18.388 21.4345 19.205 22.1183L27.1961 28.6932C29.1364 30.2975 32.4299 30.2975 34.3702 28.6932L42.3613 22.1183C43.1783 21.4345 44.4037 21.566 45.042 22.4338C45.7058 23.2754 45.5782 24.5378 44.7357 25.1953L36.7446 31.7703C35.1106 33.1642 32.9405 33.8479 30.7959 33.8479Z" fill="#FF6700"/>
</svg>
